HIERARCHY
ROOT Hips
{
	OFFSET -3.958830 18.904000 13.208200
	CHANNELS 6 Xposition Yposition Zposition Zrotation Yrotation Xrotation 
	JOINT LHipJoint
	{
		OFFSET 0.000000 0.000000 0.000000
		CHANNELS 3 Zrotation Yrotation Xrotation
		JOINT LeftUpLeg
		{
			OFFSET 1.800000 -1.400000 0.085000
			CHANNELS 3 Zrotation Yrotation Xrotation
			JOINT LeftLeg
			{
				OFFSET 2.215000 -6.000000 0.000000
				CHANNELS 3 Zrotation Yrotation Xrotation
				JOINT LeftFoot
				{
					OFFSET 2.500000 -6.900000 0.000000
					CHANNELS 3 Zrotation Yrotation Xrotation
					JOINT LeftToeBase
					{
						OFFSET 0.200000 -0.500000 1.950000
						CHANNELS 3 Zrotation Yrotation Xrotation
						End Site
						{
							OFFSET 0.000000 0.000000 0.000000
						}
					}
				}
			}
		}
	}
	JOINT RHipJoint
	{
		OFFSET 0.000000 0.000000 0.000000
		CHANNELS 3 Zrotation Yrotation Xrotation
		JOINT RightUpLeg
		{
			OFFSET -1.800000 -1.400000 0.085000
			CHANNELS 3 Zrotation Yrotation Xrotation
			JOINT RightLeg
			{
				OFFSET -2.215000 -6.000000 0.000000
				CHANNELS 3 Zrotation Yrotation Xrotation
				JOINT RightFoot
				{
					OFFSET -2.500000 -6.900000 0.000000
					CHANNELS 3 Zrotation Yrotation Xrotation
					JOINT RightToeBase
					{
						OFFSET -0.200000 -0.500000 1.950000
						CHANNELS 3 Zrotation Yrotation Xrotation
						End Site
						{
							OFFSET 0.000000 0.000000 0.000000
						}
					}
				}
			}
		}
	}
	JOINT LowerBack
	{
		OFFSET 0.000000 0.000000 0.000000
		CHANNELS 3 Zrotation Yrotation Xrotation
		JOINT Spine
		{
			OFFSET -0.087000 1.940000 -0.288900
			CHANNELS 3 Zrotation Yrotation Xrotation
			JOINT Spine1
			{
				OFFSET 0.000000 1.950000 0.060000
				CHANNELS 3 Zrotation Yrotation Xrotation
				JOINT Neck
				{
					OFFSET 0.000000 0.000000 0.000000
					CHANNELS 3 Zrotation Yrotation Xrotation
					JOINT Neck1
					{
						OFFSET 0.000000 1.600000 0.340000
						CHANNELS 3 Zrotation Yrotation Xrotation
						JOINT Head
						{
							OFFSET 0.000000 1.667000 -0.240000
							CHANNELS 3 Zrotation Yrotation Xrotation
							End Site
							{
								OFFSET 0.000000 0.000000 0.000000
							}
						}
					}
				}
				JOINT LeftShoulder
				{
					OFFSET 0.000000 0.000000 0.000000
					CHANNELS 3 Zrotation Yrotation Xrotation
					JOINT LeftArm
					{
						OFFSET 2.700000 1.550000 -0.730000
						CHANNELS 3 Zrotation Yrotation Xrotation
						JOINT LeftForeArm
						{
							OFFSET 5.450000 0.000000 0.000000
							CHANNELS 3 Zrotation Yrotation Xrotation
							JOINT LeftHand
							{
								OFFSET 3.450000 0.000000 0.000000
								CHANNELS 3 Zrotation Yrotation Xrotation
								JOINT LeftHandIndex1
								{
									OFFSET 0.750000 0.000000 0.000000
									CHANNELS 3 Zrotation Yrotation Xrotation
									End Site
									{
										OFFSET 0.000000 0.000000 0.000000
									}
								}
							}
						}
					}
				}
				JOINT RightShoulder
				{
					OFFSET 0.000000 0.000000 0.000000
					CHANNELS 3 Zrotation Yrotation Xrotation
					JOINT RightArm
					{
						OFFSET -2.700000 1.550000 -0.730000
						CHANNELS 3 Zrotation Yrotation Xrotation
						JOINT RightForeArm
						{
							OFFSET -5.450000 0.000000 0.000000
							CHANNELS 3 Zrotation Yrotation Xrotation
							JOINT RightHand
							{
								OFFSET -3.450000 0.000000 0.000000
								CHANNELS 3 Zrotation Yrotation Xrotation
								JOINT RightHandIndex1
								{
									OFFSET -0.750000 0.000000 0.000000
									CHANNELS 3 Zrotation Yrotation Xrotation
									End Site
									{
										OFFSET 0.000000 0.000000 0.000000
									}
								}
							}
						}
					}
				}
			}
		}
	}
}
MOTION
Frames: 12
Frame Time: 0.016667
0.814270 17.217460 -0.499420 -2.911770 5.617175 3.085492 -15.395091 12.886943 3.052510 -2.684269 0.306332 -3.146468 -7.195273 3.932709 1.309172 -0.850647 5.989264 3.497799 -0.062930 -1.062260 -0.176560 18.269128 -9.851417 3.194326 0.790046 3.670841 -23.917292 5.612566 -3.213290 -0.913857 -0.293235 -2.951146 3.189623 -0.373200 2.106560 1.694400 -3.339970 -2.228204 -7.405752 8.007931 -1.785738 5.664456 -2.156126 -2.104622 4.888249 3.025786 0.580971 -7.442760 0.348197 5.409860 26.313031 -7.864000 4.066480 1.626680 -12.430182 -6.800982 1.551216 -18.049000 -11.676057 1.550324 7.551640 -29.646052 -3.033705 -5.034217 2.861881 0.866980 1.280050 -0.192520 0.822050 6.969284 5.596941 3.564149 23.902431 11.424423 -3.678727 -13.652364 30.537838 -2.543108 1.388853 -1.556291 -0.599300 0.521920 0.576990 0.168710 
0.815310 17.217380 -0.499990 -2.932546 5.634423 3.057053 -15.394711 12.888163 3.053205 -2.656743 0.309978 -3.120745 -7.202874 3.934152 1.287672 -0.849040 5.990030 3.496552 -0.061340 -1.060610 -0.175210 18.269237 -9.848914 3.197033 0.798219 3.685652 -23.989375 5.610255 -3.208848 -0.900053 -0.292628 -2.943006 3.192417 -0.372630 2.103100 1.692710 -3.341019 -2.231743 -7.410301 8.041572 -1.795202 5.708277 -2.159739 -2.106175 4.876663 3.026178 0.572331 -7.442891 0.329283 5.404176 26.345892 -7.851220 4.056350 1.599050 -12.446109 -6.802220 1.545073 -18.040033 -11.685692 1.547871 7.536166 -29.662778 -3.029125 -5.031594 2.862296 0.867580 1.277420 -0.191420 0.821760 6.981623 5.601783 3.568109 23.860247 11.398082 -3.686353 -13.657183 30.511545 -2.537973 1.389589 -1.555552 -0.598440 0.521720 0.576020 0.167660 
0.817580 17.217520 -0.501260 -2.978974 5.667484 3.000884 -15.392941 12.890066 3.054044 -2.595905 0.316865 -3.073812 -7.228223 3.940052 1.254067 -0.846696 5.995125 3.494864 -0.060990 -1.060980 -0.174390 18.270344 -9.844976 3.202454 0.813293 3.715286 -24.129937 5.606627 -3.203012 -0.870118 -0.290625 -2.929570 3.197204 -0.373430 2.100910 1.690350 -3.345897 -2.236026 -7.418946 8.135739 -1.818683 5.789321 -2.189599 -2.111208 4.860409 3.029587 0.550802 -7.451025 0.285422 5.391151 26.402977 -7.833530 4.029360 1.590210 -12.484602 -6.821124 1.541133 -18.022237 -11.692322 1.537528 7.536106 -29.689711 -3.030060 -5.028132 2.861019 0.869450 1.274510 -0.190680 0.821680 7.004572 5.628586 3.585566 23.791522 11.339467 -3.710346 -13.690858 30.472033 -2.537475 1.390993 -1.553609 -0.598860 0.522560 0.575330 0.166940 
0.820760 17.217530 -0.502940 -3.025999 5.714023 2.926851 -15.391210 12.892675 3.055971 -2.538859 0.330393 -3.006742 -7.254974 3.946680 1.209904 -0.845407 6.002888 3.492543 -0.062220 -1.063070 -0.174780 18.271233 -9.839248 3.209519 0.814352 3.752765 -24.332101 5.591254 -3.194383 -0.840275 -0.287220 -2.912615 3.202562 -0.374700 2.099980 1.687590 -3.350720 -2.242631 -7.430776 8.241971 -1.851071 5.900310 -2.232293 -2.119146 4.830095 3.039232 0.527594 -7.459784 0.237536 5.377618 26.473470 -7.816250 3.999140 1.590690 -12.540307 -6.842797 1.532771 -17.985442 -11.694846 1.523143 7.538014 -29.747142 -3.031856 -5.024386 2.858567 0.872760 1.271760 -0.190290 0.821430 7.030626 5.658802 3.606513 23.718481 11.276925 -3.736937 -13.741379 30.406098 -2.539025 1.392865 -1.550696 -0.601150 0.524170 0.575510 0.166370 
0.824760 17.217340 -0.504970 -3.078223 5.777819 2.846619 -15.388960 12.894384 3.057735 -2.470590 0.347262 -2.929727 -7.297218 3.955509 1.154051 -0.842074 6.014067 3.490531 -0.065380 -1.067070 -0.176510 18.272734 -9.831838 3.218319 0.804941 3.799529 -24.596103 5.562082 -3.182100 -0.817393 -0.283173 -2.893253 3.207231 -0.377730 2.102060 1.686650 -3.357423 -2.248456 -7.444034 8.368962 -1.891052 6.019363 -2.291375 -2.131851 4.799012 3.048863 0.505435 -7.472204 0.190950 5.350565 26.537227 -7.802180 3.954570 1.626290 -12.595624 -6.872166 1.525588 -17.928267 -11.699310 1.507758 7.519389 -29.818119 -3.028612 -5.021896 2.856399 0.875360 1.270460 -0.190120 0.821300 7.053595 5.692006 3.634066 23.657034 11.197480 -3.768850 -13.810319 30.332292 -2.546159 1.396140 -1.548278 -0.603170 0.525540 0.576390 0.167750 
0.829220 17.216860 -0.506850 -3.111175 5.856706 2.769927 -15.387953 12.896130 3.059443 -2.419650 0.369687 -2.847919 -7.341913 3.965855 1.101674 -0.834748 6.024545 3.488894 -0.068380 -1.070090 -0.180420 18.273293 -9.822261 3.227530 0.764752 3.849088 -24.917479 5.512271 -3.164143 -0.806810 -0.278360 -2.872189 3.212992 -0.381430 2.104820 1.687320 -3.361116 -2.256673 -7.456509 8.456161 -1.931597 6.126384 -2.328013 -2.150364 4.765519 3.052658 0.487824 -7.480875 0.151807 5.324672 26.592698 -7.788360 3.914190 1.715360 -12.635814 -6.889450 1.519266 -17.894346 -11.712632 1.497234 7.505562 -29.882048 -3.024739 -5.020893 2.858717 0.874010 1.270570 -0.190970 0.822240 7.076535 5.711793 3.652594 23.594232 11.131084 -3.790569 -13.893403 30.232758 -2.555724 1.399736 -1.548668 -0.601920 0.524690 0.577420 0.170690 
0.834290 17.216220 -0.508420 -3.129770 5.954548 2.687438 -15.387836 12.898509 3.061507 -2.382205 0.397037 -2.759030 -7.390223 3.979118 1.055672 -0.827405 6.036720 3.486607 -0.072860 -1.075180 -0.185510 18.272931 -9.811176 3.237033 0.685733 3.897017 -25.275557 5.457150 -3.144024 -0.808364 -0.271985 -2.850296 3.219794 -0.385700 2.107790 1.687480 -3.362452 -2.267709 -7.469524 8.519412 -1.975649 6.233531 -2.365610 -2.172670 4.741079 3.061291 0.481207 -7.498559 0.130125 5.294625 26.653389 -7.773180 3.875950 1.834380 -12.664421 -6.921148 1.520319 -17.855098 -11.720461 1.483869 7.501787 -29.940535 -3.023267 -5.021027 2.860637 0.872170 1.271430 -0.193230 0.822470 7.079488 5.736733 3.680485 23.548270 11.047814 -3.816936 -13.986322 30.123846 -2.566950 1.402486 -1.549081 -0.601320 0.523520 0.579610 0.172790 
0.839590 17.215320 -0.509440 -3.136227 6.053152 2.608848 -15.388793 12.900450 3.063252 -2.356210 0.428279 -2.666424 -7.438893 3.993334 1.012452 -0.820183 6.050415 3.483547 -0.079190 -1.081670 -0.192270 18.271807 -9.798488 3.247016 0.580886 3.945002 -25.666786 5.393067 -3.121185 -0.825330 -0.264099 -2.828656 3.226331 -0.389990 2.111940 1.688110 -3.361098 -2.279591 -7.481674 8.552303 -2.010447 6.328194 -2.384561 -2.190177 4.711216 3.070935 0.482620 -7.508965 0.122400 5.256190 26.703203 -7.774720 3.840230 1.980030 -12.672769 -6.931924 1.510937 -17.835557 -11.763244 1.486796 7.470040 -29.971214 -3.012637 -5.023758 2.862309 0.868870 1.273970 -0.196480 0.822070 7.063384 5.737313 3.702569 23.509162 10.964647 -3.833613 -14.055646 30.016239 -2.571305 1.405023 -1.549850 -0.601150 0.522040 0.583070 0.175170 
0.844920 17.213740 -0.509780 -3.104031 6.165083 2.548036 -15.392046 12.901321 3.066091 -2.376384 0.466081 -2.571262 -7.480472 4.003831 0.949916 -0.811078 6.061977 3.481644 -0.085030 -1.087320 -0.198840 18.269123 -9.783170 3.255560 0.419619 3.984572 -26.095420 5.323821 -3.094515 -0.855693 -0.255154 -2.807048 3.233328 -0.393570 2.116030 1.688030 -3.354199 -2.294811 -7.491275 8.505333 -2.042670 6.388261 -2.369135 -2.215100 4.692391 3.066335 0.491724 -7.516342 0.127403 5.220681 26.734610 -7.759350 3.805390 2.160380 -12.648971 -6.931446 1.508694 -17.838164 -11.802161 1.495989 7.413964 -29.983883 -2.993608 -5.026615 2.865592 0.863060 1.277010 -0.200700 0.822230 7.049884 5.723482 3.712722 23.456550 10.896454 -3.836586 -14.089292 29.905876 -2.567757 1.408458 -1.552024 -0.600370 0.520080 0.585330 0.177980 
0.850050 17.211200 -0.509100 -3.059055 6.290938 2.525180 -15.396753 12.898961 3.067318 -2.416703 0.501652 -2.497218 -7.518010 4.010321 0.876047 -0.805037 6.073770 3.480149 -0.090180 -1.093570 -0.205500 18.266242 -9.764806 3.264070 0.234061 4.025167 -26.559025 5.251104 -3.063947 -0.912436 -0.243787 -2.788223 3.241734 -0.395380 2.121640 1.687610 -3.344750 -2.308916 -7.495961 8.414701 -2.069347 6.386138 -2.325677 -2.246204 4.673593 3.058353 0.516243 -7.503701 0.163764 5.190003 26.702053 -7.760210 3.787130 2.390190 -12.598759 -6.892461 1.493352 -17.869761 -11.862644 1.523037 7.356838 -30.002518 -2.973276 -5.032769 2.870548 0.855130 1.283270 -0.208770 0.822930 7.022586 5.657136 3.699138 23.408040 10.845226 -3.818023 -14.082084 29.811155 -2.556395 1.408499 -1.557344 -0.601050 0.517840 0.587890 0.178980 
0.854660 17.208300 -0.507480 -2.987176 6.427491 2.521887 -15.403344 12.895291 3.068439 -2.471018 0.539156 -2.428152 -7.575375 4.018811 0.799844 -0.795291 6.085601 3.479151 -0.095070 -1.098650 -0.210650 18.262086 -9.745143 3.271383 0.016236 4.058757 -27.043651 5.163929 -3.032158 -0.969050 -0.232943 -2.771258 3.246726 -0.397890 2.128160 1.689870 -3.330541 -2.323319 -7.497435 8.255683 -2.086255 6.344977 -2.247817 -2.280764 4.656039 3.043852 0.559934 -7.481046 0.233924 5.144760 26.644202 -7.774370 3.775860 2.651210 -12.538164 -6.835843 1.475937 -17.896441 -11.932749 1.558425 7.253909 -30.002340 -2.937724 -5.039818 2.878536 0.844450 1.290690 -0.215960 0.823380 7.004344 5.562351 3.670615 23.357100 10.809205 -3.783879 -14.060303 29.705035 -2.543978 1.412266 -1.565203 -0.599220 0.512890 0.588750 0.182310 
0.859280 17.205270 -0.505220 -2.912809 6.582441 2.515963 -15.410018 12.892866 3.068885 -2.521083 0.577337 -2.362320 -7.634646 4.030556 0.744740 -0.785841 6.095881 3.477315 -0.098810 -1.101480 -0.216150 18.257564 -9.725713 3.278501 -0.230976 4.082088 -27.512849 5.086559 -3.001105 -1.034160 -0.222826 -2.755673 3.252362 -0.398590 2.131920 1.690590 -3.315878 -2.339579 -7.498806 8.091838 -2.111616 6.305815 -2.176964 -2.323095 4.637594 3.032489 0.606906 -7.457047 0.309158 5.106417 26.593344 -7.781230 3.772770 2.877680 -12.473852 -6.773280 1.458184 -17.912554 -11.989152 1.590319 7.158267 -29.999694 -2.901702 -5.045618 2.886446 0.833780 1.296840 -0.222350 0.824120 6.976515 5.456900 3.638837 23.321876 10.772546 -3.750211 -14.026972 29.613144 -2.528628 1.414754 -1.572764 -0.597110 0.508250 0.589040 0.184680 
